<svg xmlns="http://www.w3.org/2000/svg" xmlns:xlink="http://www.w3.org/1999/xlink" width="500" zoomAndPan="magnify" viewBox="0 0 375 374.999991" height="500" preserveAspectRatio="xMidYMid meet" version="1.0"><defs><g/><clipPath id="660d9e132c"><path d="M 37.5 37.5 L 337.5 37.5 L 337.5 337.5 L 37.5 337.5 Z M 37.5 37.5 " clip-rule="nonzero"/></clipPath><clipPath id="ebb9c89cee"><path d="M 187.5 37.5 C 104.65625 37.5 37.5 104.65625 37.5 187.5 C 37.5 270.34375 104.65625 337.5 187.5 337.5 C 270.34375 337.5 337.5 270.34375 337.5 187.5 C 337.5 104.65625 270.34375 37.5 187.5 37.5 Z M 187.5 37.5 " clip-rule="nonzero"/></clipPath><clipPath id="5d417f3b1e"><path d="M 0.5 0.5 L 300.5 0.5 L 300.5 300.5 L 0.5 300.5 Z M 0.5 0.5 " clip-rule="nonzero"/></clipPath><clipPath id="01c7f2ac4f"><path d="M 150.5 0.5 C 67.65625 0.5 0.5 67.65625 0.5 150.5 C 0.5 233.34375 67.65625 300.5 150.5 300.5 C 233.34375 300.5 300.5 233.34375 300.5 150.5 C 300.5 67.65625 233.34375 0.5 150.5 0.5 Z M 150.5 0.5 " clip-rule="nonzero"/></clipPath><clipPath id="ef749456f5"><rect x="0" width="301" y="0" height="301"/></clipPath><clipPath id="14e48a9e85"><rect x="0" width="131" y="0" height="171"/></clipPath><clipPath id="0bacdb0fe1"><rect x="0" width="115" y="0" height="171"/></clipPath><clipPath id="d542c3aaaa"><rect x="0" width="90" y="0" height="13"/></clipPath></defs><g clip-path="url(#660d9e132c)"><g clip-path="url(#ebb9c89cee)"><g transform="matrix(1, 0, 0, 1, 37, 37)"><g clip-path="url(#ef749456f5)"><g clip-path="url(#5d417f3b1e)"><g clip-path="url(#01c7f2ac4f)"><path fill="#38bdf8" d="M 0.5 0.5 L 300.5 0.5 L 300.5 300.5 L 0.5 300.5 Z M 0.5 0.5 " fill-opacity="1" fill-rule="nonzero"/></g></g></g></g></g></g><g transform="matrix(1, 0, 0, 1, 76, 102)"><g clip-path="url(#14e48a9e85)"><g fill="#ffffff" fill-opacity="1"><g transform="translate(0.317042, 137.400333)"><g><path d="M 84.078125 0 L 84.078125 -40.78125 L 46.09375 -40.78125 L 46.09375 0 L 11.5625 0 L 11.5625 -107.515625 L 46.09375 -107.515625 L 46.09375 -68.28125 L 84.078125 -68.28125 L 84.078125 -107.515625 L 118.609375 -107.515625 L 118.609375 0 Z M 84.078125 0 "/></g></g></g></g></g><g transform="matrix(1, 0, 0, 1, 172, 102)"><g clip-path="url(#0bacdb0fe1)"><g fill="#38bdf8" fill-opacity="1"><g transform="translate(9.469551, 137.400333)"><g><path d="M 103.796875 -37.347656 C 103.796875 -20.421875 98.628906 -7.671875 88.289062 0.910156 C 78.570312 8.976562 65.183594 13.007812 48.128906 13.007812 C 31.074219 13.007812 17.6875 8.976562 7.96875 0.910156 C -2.371094 -7.671875 -7.539062 -20.421875 -7.539062 -37.347656 L -7.539062 -49.886719 L 47.074219 -49.886719 L 47.074219 -37.503906 C 47.074219 -36.007812 47.183594 -34.851562 47.398438 -34.027344 C 47.4375 -33.878906 47.460938 -33.789062 47.476562 -33.765625 C 47.382812 -33.949219 47.246094 -34.148438 47.054688 -34.367188 C 46.734375 -34.734375 46.390625 -34.984375 46.03125 -35.117188 C 46.167969 -35.066406 46.503906 -35.042969 47.035156 -35.042969 C 47.570312 -35.042969 47.902344 -35.066406 48.039062 -35.117188 C 47.679688 -34.984375 47.339844 -34.734375 47.015625 -34.367188 C 46.828125 -34.148438 46.6875 -33.949219 46.597656 -33.765625 C 46.609375 -33.789062 46.636719 -33.878906 46.675781 -34.027344 C 46.890625 -34.851562 46.996094 -36.007812 46.996094 -37.503906 L 46.996094 -118.644531 L 103.796875 -118.644531 Z M 81.53125 -37.347656 L 81.53125 -107.511719 L 92.664062 -107.511719 L 92.664062 -96.375 L 58.128906 -96.375 L 58.128906 -107.511719 L 69.265625 -107.511719 L 69.265625 -37.503906 C 69.265625 -29.816406 67.433594 -23.882812 63.773438 -19.703125 C 59.734375 -15.082031 54.152344 -12.773438 47.035156 -12.773438 C 39.917969 -12.773438 34.335938 -15.082031 30.296875 -19.703125 C 26.636719 -23.882812 24.808594 -29.816406 24.808594 -37.503906 L 24.808594 -38.753906 L 35.941406 -38.753906 L 35.941406 -27.621094 L 3.59375 -27.621094 L 3.59375 -38.753906 L 14.726562 -38.753906 L 14.726562 -37.347656 C 14.726562 -27.394531 17.214844 -20.351562 22.191406 -16.222656 C 27.785156 -11.582031 36.433594 -9.257812 48.128906 -9.257812 C 59.828125 -9.257812 68.472656 -11.582031 74.070312 -16.222656 C 79.042969 -20.351562 81.53125 -27.394531 81.53125 -37.347656 Z M 81.53125 -37.347656 "/></g></g></g><g fill="#ffffff" fill-opacity="1"><g transform="translate(9.469551, 137.400333)"><g><path d="M 92.671875 -37.34375 C 92.671875 -23.90625 88.835938 -14.007812 81.171875 -7.65625 C 73.515625 -1.300781 62.5 1.875 48.125 1.875 C 33.75 1.875 22.734375 -1.300781 15.078125 -7.65625 C 7.421875 -14.007812 3.59375 -23.90625 3.59375 -37.34375 L 3.59375 -38.75 L 35.9375 -38.75 L 35.9375 -37.5 C 35.9375 -32.601562 36.847656 -29.113281 38.671875 -27.03125 C 40.492188 -24.945312 43.28125 -23.90625 47.03125 -23.90625 C 50.78125 -23.90625 53.566406 -24.945312 55.390625 -27.03125 C 57.210938 -29.113281 58.125 -32.601562 58.125 -37.5 L 58.125 -107.515625 L 92.671875 -107.515625 Z M 92.671875 -37.34375 "/></g></g></g></g></g><g fill="#ffffff" fill-opacity="1"><g transform="translate(96.956343, 265.444142)"><g><path d="M 4.09375 -5.46875 L 4.09375 0 L 0.984375 0 L 0.984375 -13.625 L 4.09375 -13.625 L 4.09375 -8.1875 L 8.484375 -8.1875 L 8.484375 -13.625 L 11.59375 -13.625 L 11.59375 0 L 8.484375 0 L 8.484375 -5.46875 Z M 4.09375 -5.46875 "/></g></g></g><g fill="#ffffff" fill-opacity="1"><g transform="translate(110.612268, 265.444142)"><g><path d="M 7.90625 -13.625 L 13.40625 0 L 10.078125 0 L 9.0625 -2.71875 L 3.875 -2.71875 L 2.875 0 L -0.46875 0 L 5.03125 -13.625 Z M 8.015625 -5.453125 L 6.484375 -9.40625 L 6.453125 -9.40625 L 4.9375 -5.453125 Z M 8.015625 -5.453125 "/></g></g></g><g fill="#ffffff" fill-opacity="1"><g transform="translate(124.631451, 265.444142)"><g><path d="M 0.984375 -13.625 L 5.859375 -13.625 C 7.171875 -13.625 8.238281 -13.273438 9.0625 -12.578125 C 9.894531 -11.878906 10.3125 -10.878906 10.3125 -9.578125 C 10.3125 -8.578125 10.054688 -7.738281 9.546875 -7.0625 C 9.046875 -6.382812 8.367188 -5.90625 7.515625 -5.625 L 12.203125 0 L 8.265625 0 L 4.09375 -5.390625 L 4.09375 0 L 0.984375 0 Z M 4.09375 -7.578125 L 4.453125 -7.578125 C 4.742188 -7.578125 4.988281 -7.582031 5.1875 -7.59375 C 5.382812 -7.601562 5.609375 -7.640625 5.859375 -7.703125 C 6.117188 -7.773438 6.320312 -7.867188 6.46875 -7.984375 C 6.625 -8.109375 6.753906 -8.285156 6.859375 -8.515625 C 6.972656 -8.753906 7.03125 -9.035156 7.03125 -9.359375 C 7.03125 -9.691406 6.972656 -9.972656 6.859375 -10.203125 C 6.753906 -10.429688 6.625 -10.609375 6.46875 -10.734375 C 6.320312 -10.859375 6.117188 -10.953125 5.859375 -11.015625 C 5.609375 -11.078125 5.382812 -11.113281 5.1875 -11.125 C 4.988281 -11.132812 4.742188 -11.140625 4.453125 -11.140625 L 4.09375 -11.140625 Z M 4.09375 -7.578125 "/></g></g></g><g fill="#ffffff" fill-opacity="1"><g transform="translate(137.527842, 265.444142)"><g><path d="M 11.46875 -13.625 L 11.46875 -4.84375 C 11.46875 -3.164062 11.015625 -1.894531 10.109375 -1.03125 C 9.203125 -0.175781 7.878906 0.25 6.140625 0.25 C 4.398438 0.25 3.078125 -0.175781 2.171875 -1.03125 C 1.273438 -1.894531 0.828125 -3.164062 0.828125 -4.84375 L 0.828125 -13.625 L 3.9375 -13.625 L 3.9375 -5.75 C 3.9375 -4.644531 4.109375 -3.878906 4.453125 -3.453125 C 4.796875 -3.023438 5.359375 -2.8125 6.140625 -2.8125 C 6.921875 -2.8125 7.484375 -3.023438 7.828125 -3.453125 C 8.179688 -3.878906 8.359375 -4.644531 8.359375 -5.75 L 8.359375 -13.625 Z M 11.46875 -13.625 "/></g></g></g><g fill="#ffffff" fill-opacity="1"><g transform="translate(150.886564, 265.444142)"><g><path d="M 4.09375 -8.453125 L 4.09375 0 L 0.984375 0 L 0.984375 -13.625 L 4.09375 -13.625 L 9.515625 -5.171875 L 9.546875 -5.171875 L 9.546875 -13.625 L 12.65625 -13.625 L 12.65625 0 L 9.546875 0 L 4.125 -8.453125 Z M 4.09375 -8.453125 "/></g></g></g><g fill="#ffffff" fill-opacity="1"><g transform="translate(165.599236, 265.444142)"><g/></g></g><g fill="#ffffff" fill-opacity="1"><g transform="translate(171.180955, 265.444142)"><g><path d="M 6.921875 -13.625 L 6.921875 -3.84375 C 6.921875 -2.507812 6.550781 -1.492188 5.8125 -0.796875 C 5.082031 -0.0976562 4.035156 0.25 2.671875 0.25 C 2.304688 0.25 1.945312 0.203125 1.59375 0.109375 C 1.25 0.0234375 0.953125 -0.078125 0.703125 -0.203125 C 0.460938 -0.328125 0.242188 -0.457031 0.046875 -0.59375 C -0.140625 -0.726562 -0.273438 -0.835938 -0.359375 -0.921875 L -0.515625 -1.0625 L 0.484375 -3.65625 C 1.128906 -3.03125 1.71875 -2.71875 2.25 -2.71875 C 2.71875 -2.71875 3.09375 -2.875 3.375 -3.1875 C 3.664062 -3.507812 3.8125 -3.992188 3.8125 -4.640625 L 3.8125 -13.625 Z M 6.921875 -13.625 "/></g></g></g><g fill="#ffffff" fill-opacity="1"><g transform="translate(179.998959, 265.444142)"><g><path d="M 8.78125 -13.625 L 8.78125 -10.90625 L 4.09375 -10.90625 L 4.09375 -8.1875 L 8.59375 -8.1875 L 8.59375 -5.46875 L 4.09375 -5.46875 L 4.09375 -2.71875 L 8.78125 -2.71875 L 8.78125 0 L 0.984375 0 L 0.984375 -13.625 Z M 8.78125 -13.625 "/></g></g></g><g fill="#ffffff" fill-opacity="1"><g transform="translate(190.649757, 265.444142)"><g><path d="M -0.5 -13.625 L 3.234375 -13.625 L 6.078125 -9.265625 L 8.921875 -13.625 L 12.65625 -13.625 L 7.625 -6.109375 L 7.625 0 L 4.53125 0 L 4.53125 -6.109375 Z M -0.5 -13.625 "/></g></g></g><g fill="#ffffff" fill-opacity="1"><g transform="translate(203.876379, 265.444142)"><g><path d="M 4.09375 -8.453125 L 4.09375 0 L 0.984375 0 L 0.984375 -13.625 L 4.09375 -13.625 L 9.515625 -5.171875 L 9.546875 -5.171875 L 9.546875 -13.625 L 12.65625 -13.625 L 12.65625 0 L 9.546875 0 L 4.125 -8.453125 Z M 4.09375 -8.453125 "/></g></g></g><g fill="#ffffff" fill-opacity="1"><g transform="translate(218.589052, 265.444142)"><g><path d="M 7.90625 -13.625 L 13.40625 0 L 10.078125 0 L 9.0625 -2.71875 L 3.875 -2.71875 L 2.875 0 L -0.46875 0 L 5.03125 -13.625 Z M 8.015625 -5.453125 L 6.484375 -9.40625 L 6.453125 -9.40625 L 4.9375 -5.453125 Z M 8.015625 -5.453125 "/></g></g></g><g fill="#ffffff" fill-opacity="1"><g transform="translate(232.608235, 265.444142)"><g><path d="M 0.984375 -13.625 L 5.859375 -13.625 C 7.171875 -13.625 8.238281 -13.273438 9.0625 -12.578125 C 9.894531 -11.878906 10.3125 -10.878906 10.3125 -9.578125 C 10.3125 -8.578125 10.054688 -7.738281 9.546875 -7.0625 C 9.046875 -6.382812 8.367188 -5.90625 7.515625 -5.625 L 12.203125 0 L 8.265625 0 L 4.09375 -5.390625 L 4.09375 0 L 0.984375 0 Z M 4.09375 -7.578125 L 4.453125 -7.578125 C 4.742188 -7.578125 4.988281 -7.582031 5.1875 -7.59375 C 5.382812 -7.601562 5.609375 -7.640625 5.859375 -7.703125 C 6.117188 -7.773438 6.320312 -7.867188 6.46875 -7.984375 C 6.625 -8.109375 6.753906 -8.285156 6.859375 -8.515625 C 6.972656 -8.753906 7.03125 -9.035156 7.03125 -9.359375 C 7.03125 -9.691406 6.972656 -9.972656 6.859375 -10.203125 C 6.753906 -10.429688 6.625 -10.609375 6.46875 -10.734375 C 6.320312 -10.859375 6.117188 -10.953125 5.859375 -11.015625 C 5.609375 -11.078125 5.382812 -11.113281 5.1875 -11.125 C 4.988281 -11.132812 4.742188 -11.140625 4.453125 -11.140625 L 4.09375 -11.140625 Z M 4.09375 -7.578125 "/></g></g></g><g fill="#ffffff" fill-opacity="1"><g transform="translate(245.504626, 265.444142)"><g><path d="M 0.375 -6.828125 C 0.375 -8.796875 1.046875 -10.460938 2.390625 -11.828125 C 3.734375 -13.191406 5.351562 -13.875 7.25 -13.875 C 9.15625 -13.875 10.773438 -13.191406 12.109375 -11.828125 C 13.441406 -10.472656 14.109375 -8.804688 14.109375 -6.828125 C 14.109375 -4.828125 13.453125 -3.144531 12.140625 -1.78125 C 10.828125 -0.425781 9.195312 0.25 7.25 0.25 C 5.257812 0.25 3.613281 -0.421875 2.3125 -1.765625 C 1.019531 -3.117188 0.375 -4.804688 0.375 -6.828125 Z M 3.734375 -6.828125 C 3.734375 -6.109375 3.84375 -5.453125 4.0625 -4.859375 C 4.28125 -4.273438 4.664062 -3.78125 5.21875 -3.375 C 5.769531 -2.96875 6.445312 -2.765625 7.25 -2.765625 C 8.40625 -2.765625 9.273438 -3.160156 9.859375 -3.953125 C 10.453125 -4.742188 10.75 -5.703125 10.75 -6.828125 C 10.75 -7.929688 10.445312 -8.882812 9.84375 -9.6875 C 9.25 -10.488281 8.382812 -10.890625 7.25 -10.890625 C 6.125 -10.890625 5.253906 -10.488281 4.640625 -9.6875 C 4.035156 -8.882812 3.734375 -7.929688 3.734375 -6.828125 Z M 3.734375 -6.828125 "/></g></g></g><g fill="#ffffff" fill-opacity="1"><g transform="translate(261.0594, 265.444142)"><g><path d="M 1.484375 -13.359375 C 1.816406 -13.703125 2.21875 -13.875 2.6875 -13.875 C 3.164062 -13.875 3.570312 -13.703125 3.90625 -13.359375 C 4.25 -13.015625 4.421875 -12.609375 4.421875 -12.140625 C 4.421875 -10.679688 3.585938 -9.253906 1.921875 -7.859375 L 1.140625 -8.46875 C 1.203125 -8.539062 1.285156 -8.632812 1.390625 -8.75 C 1.492188 -8.863281 1.648438 -9.101562 1.859375 -9.46875 C 2.078125 -9.84375 2.21875 -10.21875 2.28125 -10.59375 C 1.90625 -10.675781 1.59375 -10.859375 1.34375 -11.140625 C 1.101562 -11.429688 0.984375 -11.765625 0.984375 -12.140625 C 0.984375 -12.617188 1.148438 -13.023438 1.484375 -13.359375 Z M 1.484375 -13.359375 "/></g></g></g><g fill="#ffffff" fill-opacity="1"><g transform="translate(266.938321, 265.444142)"><g><path d="M 6.015625 -13.875 C 6.753906 -13.875 7.472656 -13.765625 8.171875 -13.546875 C 8.878906 -13.335938 9.40625 -13.128906 9.75 -12.921875 L 10.234375 -12.578125 L 8.984375 -10.109375 C 8.878906 -10.171875 8.738281 -10.253906 8.5625 -10.359375 C 8.394531 -10.460938 8.066406 -10.601562 7.578125 -10.78125 C 7.097656 -10.957031 6.644531 -11.046875 6.21875 -11.046875 C 5.707031 -11.046875 5.3125 -10.9375 5.03125 -10.71875 C 4.75 -10.5 4.609375 -10.203125 4.609375 -9.828125 C 4.609375 -9.640625 4.671875 -9.460938 4.796875 -9.296875 C 4.929688 -9.140625 5.160156 -8.96875 5.484375 -8.78125 C 5.804688 -8.601562 6.085938 -8.457031 6.328125 -8.34375 C 6.566406 -8.238281 6.941406 -8.078125 7.453125 -7.859375 C 8.328125 -7.484375 9.078125 -6.972656 9.703125 -6.328125 C 10.328125 -5.691406 10.640625 -4.960938 10.640625 -4.140625 C 10.640625 -3.359375 10.5 -2.675781 10.21875 -2.09375 C 9.9375 -1.507812 9.550781 -1.050781 9.0625 -0.71875 C 8.570312 -0.394531 8.03125 -0.15625 7.4375 0 C 6.84375 0.164062 6.195312 0.25 5.5 0.25 C 4.90625 0.25 4.320312 0.1875 3.75 0.0625 C 3.175781 -0.0507812 2.695312 -0.195312 2.3125 -0.375 C 1.925781 -0.5625 1.578125 -0.742188 1.265625 -0.921875 C 0.960938 -1.097656 0.738281 -1.25 0.59375 -1.375 L 0.375 -1.546875 L 1.9375 -4.15625 C 2.0625 -4.050781 2.238281 -3.910156 2.46875 -3.734375 C 2.707031 -3.566406 3.117188 -3.335938 3.703125 -3.046875 C 4.296875 -2.765625 4.816406 -2.625 5.265625 -2.625 C 6.578125 -2.625 7.234375 -3.070312 7.234375 -3.96875 C 7.234375 -4.15625 7.1875 -4.328125 7.09375 -4.484375 C 7 -4.640625 6.832031 -4.796875 6.59375 -4.953125 C 6.363281 -5.117188 6.15625 -5.25 5.96875 -5.34375 C 5.789062 -5.4375 5.492188 -5.578125 5.078125 -5.765625 C 4.660156 -5.960938 4.351562 -6.109375 4.15625 -6.203125 C 3.332031 -6.617188 2.691406 -7.128906 2.234375 -7.734375 C 1.785156 -8.347656 1.5625 -9.007812 1.5625 -9.71875 C 1.5625 -10.9375 2.015625 -11.929688 2.921875 -12.703125 C 3.828125 -13.484375 4.859375 -13.875 6.015625 -13.875 Z M 6.015625 -13.875 "/></g></g></g><g transform="matrix(1, 0, 0, 1, 145, 270)"><g clip-path="url(#d542c3aaaa)"><g fill="#ffffff" fill-opacity="1"><g transform="translate(0.871403, 9.647356)"><g><path d="M 2.90625 -5.71875 C 3.300781 -5.71875 3.640625 -5.644531 3.921875 -5.5 C 4.203125 -5.363281 4.414062 -5.160156 4.5625 -4.890625 C 4.707031 -4.628906 4.78125 -4.320312 4.78125 -3.96875 C 4.78125 -3.613281 4.707031 -3.304688 4.5625 -3.046875 C 4.414062 -2.785156 4.203125 -2.582031 3.921875 -2.4375 C 3.640625 -2.300781 3.300781 -2.234375 2.90625 -2.234375 L 1.53125 -2.234375 L 1.53125 0 L 0.859375 0 L 0.859375 -5.71875 Z M 2.890625 -2.8125 C 3.679688 -2.8125 4.078125 -3.195312 4.078125 -3.96875 C 4.078125 -4.75 3.679688 -5.140625 2.890625 -5.140625 L 1.53125 -5.140625 L 1.53125 -2.8125 Z M 2.890625 -2.8125 "/></g></g></g><g fill="#ffffff" fill-opacity="1"><g transform="translate(10.806408, 9.647356)"><g><path d="M 3.140625 0.078125 C 2.640625 0.078125 2.195312 -0.0234375 1.8125 -0.234375 C 1.425781 -0.453125 1.125 -0.78125 0.90625 -1.21875 C 0.6875 -1.65625 0.578125 -2.203125 0.578125 -2.859375 C 0.578125 -3.515625 0.6875 -4.0625 0.90625 -4.5 C 1.125 -4.9375 1.425781 -5.257812 1.8125 -5.46875 C 2.195312 -5.6875 2.640625 -5.796875 3.140625 -5.796875 C 3.628906 -5.796875 4.066406 -5.6875 4.453125 -5.46875 C 4.835938 -5.257812 5.140625 -4.9375 5.359375 -4.5 C 5.585938 -4.0625 5.703125 -3.515625 5.703125 -2.859375 C 5.703125 -2.203125 5.585938 -1.65625 5.359375 -1.21875 C 5.140625 -0.78125 4.835938 -0.453125 4.453125 -0.234375 C 4.066406 -0.0234375 3.628906 0.078125 3.140625 0.078125 Z M 3.140625 -0.546875 C 3.734375 -0.546875 4.1875 -0.726562 4.5 -1.09375 C 4.820312 -1.46875 4.984375 -2.054688 4.984375 -2.859375 C 4.984375 -3.660156 4.820312 -4.242188 4.5 -4.609375 C 4.1875 -4.984375 3.734375 -5.171875 3.140625 -5.171875 C 1.910156 -5.171875 1.296875 -4.398438 1.296875 -2.859375 C 1.296875 -1.316406 1.910156 -0.546875 3.140625 -0.546875 Z M 3.140625 -0.546875 "/></g></g></g><g fill="#ffffff" fill-opacity="1"><g transform="translate(21.800004, 9.647356)"><g><path d="M 0.859375 0 L 0.859375 -5.71875 L 2.9375 -5.71875 C 3.320312 -5.71875 3.644531 -5.648438 3.90625 -5.515625 C 4.164062 -5.390625 4.359375 -5.210938 4.484375 -4.984375 C 4.617188 -4.753906 4.6875 -4.484375 4.6875 -4.171875 C 4.6875 -3.816406 4.597656 -3.523438 4.421875 -3.296875 C 4.242188 -3.066406 3.96875 -2.894531 3.59375 -2.78125 L 3.59375 -2.6875 C 3.78125 -2.613281 3.929688 -2.5 4.046875 -2.34375 C 4.160156 -2.1875 4.269531 -1.957031 4.375 -1.65625 L 4.890625 0 L 4.203125 0 L 3.640625 -1.75 C 3.566406 -1.957031 3.484375 -2.117188 3.390625 -2.234375 C 3.304688 -2.347656 3.195312 -2.429688 3.0625 -2.484375 C 2.925781 -2.535156 2.753906 -2.5625 2.546875 -2.5625 L 1.53125 -2.5625 L 1.53125 0 Z M 2.921875 -3.140625 C 3.273438 -3.140625 3.539062 -3.21875 3.71875 -3.375 C 3.894531 -3.539062 3.984375 -3.796875 3.984375 -4.140625 C 3.984375 -4.472656 3.894531 -4.722656 3.71875 -4.890625 C 3.539062 -5.054688 3.273438 -5.140625 2.921875 -5.140625 L 1.53125 -5.140625 L 1.53125 -3.140625 Z M 2.921875 -3.140625 "/></g></g></g><g fill="#ffffff" fill-opacity="1"><g transform="translate(31.81704, 9.647356)"><g><path d="M 4.453125 -5.71875 L 4.453125 -5.140625 L 2.671875 -5.140625 L 2.671875 0 L 2 0 L 2 -5.140625 L 0.21875 -5.140625 L 0.21875 -5.71875 Z M 4.453125 -5.71875 "/></g></g></g><g fill="#ffffff" fill-opacity="1"><g transform="translate(41.209077, 9.647356)"><g><path d="M 4.21875 -5.71875 L 4.21875 -5.15625 L 1.53125 -5.15625 L 1.53125 -3.078125 L 3.953125 -3.078125 L 3.953125 -2.515625 L 1.53125 -2.515625 L 1.53125 0 L 0.859375 0 L 0.859375 -5.71875 Z M 4.21875 -5.71875 "/></g></g></g><g fill="#ffffff" fill-opacity="1"><g transform="translate(50.464397, 9.647356)"><g><path d="M 3.140625 0.078125 C 2.640625 0.078125 2.195312 -0.0234375 1.8125 -0.234375 C 1.425781 -0.453125 1.125 -0.78125 0.90625 -1.21875 C 0.6875 -1.65625 0.578125 -2.203125 0.578125 -2.859375 C 0.578125 -3.515625 0.6875 -4.0625 0.90625 -4.5 C 1.125 -4.9375 1.425781 -5.257812 1.8125 -5.46875 C 2.195312 -5.6875 2.640625 -5.796875 3.140625 -5.796875 C 3.628906 -5.796875 4.066406 -5.6875 4.453125 -5.46875 C 4.835938 -5.257812 5.140625 -4.9375 5.359375 -4.5 C 5.585938 -4.0625 5.703125 -3.515625 5.703125 -2.859375 C 5.703125 -2.203125 5.585938 -1.65625 5.359375 -1.21875 C 5.140625 -0.78125 4.835938 -0.453125 4.453125 -0.234375 C 4.066406 -0.0234375 3.628906 0.078125 3.140625 0.078125 Z M 3.140625 -0.546875 C 3.734375 -0.546875 4.1875 -0.726562 4.5 -1.09375 C 4.820312 -1.46875 4.984375 -2.054688 4.984375 -2.859375 C 4.984375 -3.660156 4.820312 -4.242188 4.5 -4.609375 C 4.1875 -4.984375 3.734375 -5.171875 3.140625 -5.171875 C 1.910156 -5.171875 1.296875 -4.398438 1.296875 -2.859375 C 1.296875 -1.316406 1.910156 -0.546875 3.140625 -0.546875 Z M 3.140625 -0.546875 "/></g></g></g><g fill="#ffffff" fill-opacity="1"><g transform="translate(61.457993, 9.647356)"><g><path d="M 1.53125 -5.71875 L 1.53125 -0.5625 L 4.28125 -0.5625 L 4.28125 0 L 0.859375 0 L 0.859375 -5.71875 Z M 1.53125 -5.71875 "/></g></g></g><g fill="#ffffff" fill-opacity="1"><g transform="translate(70.713312, 9.647356)"><g><path d="M 1.53125 0 L 0.859375 0 L 0.859375 -5.71875 L 1.53125 -5.71875 Z M 1.53125 0 "/></g></g></g><g fill="#ffffff" fill-opacity="1"><g transform="translate(77.843636, 9.647356)"><g><path d="M 3.140625 0.078125 C 2.640625 0.078125 2.195312 -0.0234375 1.8125 -0.234375 C 1.425781 -0.453125 1.125 -0.78125 0.90625 -1.21875 C 0.6875 -1.65625 0.578125 -2.203125 0.578125 -2.859375 C 0.578125 -3.515625 0.6875 -4.0625 0.90625 -4.5 C 1.125 -4.9375 1.425781 -5.257812 1.8125 -5.46875 C 2.195312 -5.6875 2.640625 -5.796875 3.140625 -5.796875 C 3.628906 -5.796875 4.066406 -5.6875 4.453125 -5.46875 C 4.835938 -5.257812 5.140625 -4.9375 5.359375 -4.5 C 5.585938 -4.0625 5.703125 -3.515625 5.703125 -2.859375 C 5.703125 -2.203125 5.585938 -1.65625 5.359375 -1.21875 C 5.140625 -0.78125 4.835938 -0.453125 4.453125 -0.234375 C 4.066406 -0.0234375 3.628906 0.078125 3.140625 0.078125 Z M 3.140625 -0.546875 C 3.734375 -0.546875 4.1875 -0.726562 4.5 -1.09375 C 4.820312 -1.46875 4.984375 -2.054688 4.984375 -2.859375 C 4.984375 -3.660156 4.820312 -4.242188 4.5 -4.609375 C 4.1875 -4.984375 3.734375 -5.171875 3.140625 -5.171875 C 1.910156 -5.171875 1.296875 -4.398438 1.296875 -2.859375 C 1.296875 -1.316406 1.910156 -0.546875 3.140625 -0.546875 Z M 3.140625 -0.546875 "/></g></g></g></g></g></svg>