<svg xmlns="http://www.w3.org/2000/svg" xmlns:xlink="http://www.w3.org/1999/xlink" viewBox="0,0,256,256" width="500px" height="500px" fill-rule="nonzero"><g fill="#dddddd" fill-rule="nonzero" stroke="none" stroke-width="1" stroke-linecap="butt" stroke-linejoin="miter" stroke-miterlimit="10" stroke-dasharray="" stroke-dashoffset="0" font-family="none" font-weight="none" font-size="none" text-anchor="none" style="mix-blend-mode: normal"><g transform="scale(5.12,5.12)"><path d="M15,3c-3.86,0 -7,3.14 -7,7v8.73047c1.46,-1.67 3.61,-2.73047 6,-2.73047h13.53906c-0.95,-1.06 -1.53906,-2.46 -1.53906,-4v-5c0,-1.53 0.57906,-2.93 1.53906,-4zM32,3c-2.21,0 -4,1.79 -4,4v5c0,2.21 1.79,4 4,4h9c2.21,0 4,-1.79 4,-4v-5c0,-2.21 -1.79,-4 -4,-4zM45,16.46094c-1.06,0.96 -2.46,1.53906 -4,1.53906h-9c-2.21,0 -4,1.79 -4,4v6.63086c0,2.76 -2.24,5 -5,5v4.86914c0,3.03 -2.47,5.5 -5.5,5.5h-8.24023c1.27,1.81 3.37023,3 5.74023,3h26c2.21,0 4,-1.79 4,-4zM14,18c-2.61,0 -4.82039,1.67 -5.65039,4h9.15039c3.03,0 5.5,2.47 5.5,5.5v4.13086c1.65,0 3,-1.34 3,-3v-6.63086c0,-1.54 0.58906,-2.94 1.53906,-4zM6.5,24c-1.933,0 -3.5,1.567 -3.5,3.5v11c0,1.933 1.567,3.5 3.5,3.5h11c1.933,0 3.5,-1.567 3.5,-3.5v-11c0,-1.933 -1.567,-3.5 -3.5,-3.5zM7.70313,28.10547h2.60742l1.47266,2.78516c0.059,0.114 0.10939,0.21478 0.15039,0.30078c0.045,0.082 0.08976,0.17897 0.13476,0.29297h0.02734c0.063,-0.132 0.11339,-0.2355 0.15039,-0.3125c0.04,-0.077 0.09411,-0.18159 0.16211,-0.30859l1.5293,-2.75586h2.48242l-2.82422,4.8125l2.90625,4.97461h-2.64062l-1.65625,-3.12109c-0.059,-0.11 -0.10472,-0.19577 -0.13672,-0.25977c-0.027,-0.068 -0.05589,-0.14642 -0.08789,-0.23242h-0.02734c-0.041,0.11 -0.07923,0.19958 -0.11523,0.26758c-0.037,0.069 -0.08086,0.15195 -0.13086,0.25195l-1.71875,3.0918h-2.49023l2.98828,-4.90039z"></path></g></g></svg>